<svg height="512" viewBox="0 0 58 58" width="512" xmlns="http://www.w3.org/2000/svg"><g id="Page-1" fill="none" fill-rule="evenodd"><g id="031---PPE-Signage" fill-rule="nonzero"><circle id="Oval" cx="29" cy="29" fill="#2980ba" r="29"/><circle id="Oval" cx="29" cy="29" fill="#3b97d3" r="25"/><g fill="#fff"><path id="Shape" d="m9.336 45.422c-.30654836.0001866-.59624659-.1402396-.786-.381-8.12337443-10.3446268-7.23755874-25.1274558 2.0629928-34.4280072 9.3005514-9.30055154 24.0833804-10.18636723 34.4280072-2.0629928.2806321.2216833.4216803.57624257.370013.93011876-.0516674.3538762-.2882006.65330714-.6205.78550004-.3322995.1321929-.7098809.0770645-.990513-.1446188-9.5488251-7.48399309-23.1821289-6.66064695-31.7608879 1.9181121-8.57875905 8.578759-9.40210519 22.2120628-1.9181121 31.7608879.2370908.3008222.2815242.710641.1144166 1.0552872-.1671077.3446463-.51639441.5635631-.8994166.5637128z"/><path id="Shape" d="m28.989 55c-5.815969.006574-11.4639935-1.9496226-16.03-5.552-.4332674-.3426927-.5066927-.9717326-.164-1.405s.9717326-.5066927 1.405-.164c9.5488251 7.4839931 23.1821289 6.6606469 31.7608879-1.9181121s9.4021052-22.2120628 1.9181121-31.7608879c-.3418643-.4338197-.2673197-1.0626357.1665-1.4045s1.0626357-.2673197 1.4045.1665c6.1399624 7.8280987 7.2734935 18.4740046 2.9195078 27.4194546-4.3539857 8.9454499-13.431726 14.6212616-23.3805078 14.6185454z"/><circle id="Oval" cx="29" cy="43" r="4"/><path id="Shape" d="m33.97 14.47c.053-.437-.746 6.178-2.11 17.41v.01c-.3870938 1.2547786-1.5468698 2.1107024-2.86 2.1107024s-2.4729062-.8559238-2.86-2.1107024v-.01c-.672-5.533-2.193-18.074-2.11-17.39-.1899485-1.8918306.7108436-3.7273954 2.3234838-4.73461675 1.6126403-1.00722134 3.6573181-1.01133538 5.2739985-.01061167 1.6166804 1.00072372 2.5248517 2.83264872 2.3425177 4.72522842z"/></g></g></g></svg>