<?xml version="1.0" encoding="UTF-8"?>
<svg width="87px" height="87px" viewBox="0 0 87 87" version="1.1" xmlns="http://www.w3.org/2000/svg" xmlns:xlink="http://www.w3.org/1999/xlink">
    <title>Boss</title>
    <defs>
        <circle id="path-1" cx="42.5" cy="42.5" r="42.5"></circle>
    </defs>
    <g id="Lesson-Learned" stroke="none" stroke-width="1" fill="none" fill-rule="evenodd">
        <g id="Desktop-1" transform="translate(-676.000000, -523.000000)">
            <g id="Boss" transform="translate(677.000000, 524.000000)">
                <g id="Bild">
                    <mask id="mask-2" fill="white">
                        <use xlink:href="#path-1"></use>
                    </mask>
                    <use id="Oval" stroke="#14639E" xlink:href="#path-1"></use>
                    <g id="safe-(1)" mask="url(#mask-2)" fill-rule="nonzero">
                        <g transform="translate(15.000000, 16.000000)" id="Path">
                            <path d="M52.6981931,35.1567082 L41.0161847,42.8783005 L37.5346304,42.6851842 L37.3983764,41.3320596 C37.1953226,39.3174462 35.6248628,37.7004252 33.5952096,37.4168675 L21.2438757,36.3477375 C20.0335158,36.1786515 17.4876015,34.8491203 15.4915693,33.7183852 C13.5990547,32.6461968 11.4610176,32.0690325 9.27962688,32.051119 L3,32 L3,47.1618115 L20.7749496,53.8099045 C21.4469294,53.9973409 22.1525304,54.053266 22.8417631,53.945785 C22.8457446,53.9449112 22.8501684,53.9440373 22.8541499,53.9436004 L40.7494277,51.3959512 C42.1278933,51.1788046 43.4240755,50.6051358 44.5061444,49.7339279 L56.0718061,39.4598805 C57.1100789,38.5497873 57.3025156,37.0197122 56.5212672,35.8863557 C55.6670256,34.645955 53.9589848,34.3200166 52.6981931,35.1567082 L52.6981931,35.1567082 Z" fill="#FAE0C1"></path>
                            <path d="M56.5212711,35.32345 C56.4442971,35.2076747 56.3593602,35.1000082 56.2691148,35 L44.5062468,43.7966696 C43.4241867,44.6953922 42.1280152,45.2864318 40.7495609,45.5107745 L22.8544297,48.1375672 C22.8500058,48.1380176 22.8460245,48.1389186 22.842043,48.1393691 C22.1523736,48.2506395 21.4467784,48.1925266 20.7752464,47.9992675 L3,41.1451 L3,46.9496315 L20.7752464,53.803799 C21.4467784,53.9970582 22.1523736,54.0551711 22.842043,53.9439006 C22.8460245,53.9434502 22.8500058,53.9425491 22.8544297,53.9420987 L40.7495609,51.315306 C42.1280152,51.0909633 43.4241867,50.4999237 44.5062468,49.6012011 L56.0718137,39.0084379 C57.110078,38.0696218 57.3025131,36.4924651 56.5212711,35.32345 L56.5212711,35.32345 Z" fill="#EFD0AF"></path>
                            <path d="M8.76720994,52 L1.23279017,52 C0.552069728,52 0,51.4585541 0,50.7903868 L0,28.2100562 C0,27.541889 0.552069728,27 1.23279017,27 L8.76720994,27 C9.44793027,27 10,27.541889 10,28.2100562 L10,50.7903868 C10,51.4585541 9.44793027,52 8.76720994,52 Z" fill="#009FCA"></path>
                            <path d="M7.93842813,27 L4,27 L4,52 L7.93842813,52 C8.52460544,52 9,51.4585541 9,50.7903868 L9,28.2100562 C9,27.541889 8.52460544,27 7.93842813,27 Z" fill="#0C3868"></path>
                            <path d="M44.2280554,7.7934683 C41.2642662,6.60104167 39.1941969,3.90044374 38.9111181,0.755190049 C38.8720262,0.324905985 38.4950374,-0.00259753342 38.0493007,0 L19.8428456,0.10366698 C19.3921663,0.106279985 19.0237146,0.445542359 18.9891161,0.881052432 C18.7392879,4.0271772 16.6997731,6.74737305 13.7499131,7.97028534 C13.250706,8.17715265 12.9505527,8.67711821 13.0067192,9.20060138 C13.4205533,13.0352675 15.8298677,26.0909884 28.9647204,31.9634063 C29.0190894,31.9877948 29.0792999,32.0004247 29.1395103,32 C29.1997207,31.9995536 29.2594817,31.9864884 29.3138507,31.9616642 C42.3759118,25.9407375 44.627511,12.858886 44.9946146,9.01942919 C45.045389,8.49159087 44.7331039,7.99641594 44.2280554,7.7934683 L44.2280554,7.7934683 Z" fill="#14639E"></path>
                            <path d="M43.2606043,7.7934683 C40.4217826,6.60104167 38.4389973,3.90044374 38.1678545,0.755190049 C38.1304109,0.324905985 37.7693177,-0.00259753342 37.3423755,0 L32.5909212,0.0283236539 C32.5965162,3.47756343 34.6572013,6.50610053 37.7094941,7.79085519 C38.1945384,7.9951095 38.4979601,8.48984894 38.4493266,9.01942919 C38.1230944,12.5792885 36.2436016,24.0828515 26,30.5388528 C26.8263399,31.0488351 27.704326,31.5261541 28.6404141,31.9634063 C28.6929211,31.9877948 28.7505928,32.0004247 28.8082645,32 C28.865936,31.9995536 28.9231773,31.9864884 28.9752539,31.9612287 C41.4865559,25.940302 43.6432169,12.858886 43.9948417,9.01942919 C44.0434752,8.49159087 43.7443575,7.99641594 43.2606043,7.7934683 L43.2606043,7.7934683 Z" fill="#14639E"></path>
                            <path d="M28.8828228,27.9444369 C20.2338721,23.2417989 17.7254948,14.5192199 17.0064064,10.2393689 C16.9757057,10.0561324 17.0569977,9.87159621 17.2148253,9.77369684 C19.5645103,8.31430221 21.2802905,6.04788717 22.0547266,3.40503587 C22.111804,3.21053659 22.2908193,3.07711614 22.4931845,3.07624983 L35.424235,3 C35.6266003,2.99870999 35.8069129,3.12996444 35.8665846,3.32403056 C36.6717214,5.95691873 38.4138783,8.20297413 40.7808595,9.63507818 C40.9395518,9.73124482 41.0230059,9.91448139 40.9944672,10.0981511 C40.3259701,14.3866658 37.9209374,23.1382681 29.326902,27.9418377 C29.1893975,28.0185111 29.0207598,28.0193775 28.8828228,27.9444369 Z" fill="#E1E0DE"></path>
                            <path d="M39.7764546,9.6350743 C37.3633064,8.20296994 35.5871695,5.95691407 34.7663287,3.32402535 C34.7059339,3.12995919 34.5216636,2.99913786 34.3153513,3 L28.9997247,3.03076022 C29.7773632,5.79013849 31.5944982,8.15055478 34.0966955,9.63550746 C34.2584832,9.73124096 34.3431241,9.91447756 34.3140288,10.097281 C33.7047904,13.9305208 31.6809024,21.3301595 25,26.2883767 C25.8129056,26.8801052 26.6928186,27.4358795 27.6463514,27.9444369 C27.7869788,28.0193776 27.9589058,28.0185111 28.0990923,27.9418377 C36.8607509,23.1387002 39.3126928,14.3866629 39.9942286,10.0985805 C40.0237648,9.91491072 39.9382421,9.73124096 39.7764546,9.6350743 Z" fill="#D6D6D6"></path>
                            <path d="M7,47 C7,48.1043825 6.10438247,49 5,49 C3.89521915,49 3,48.1043825 3,47 C3,45.8952191 3.89521915,45 5,45 C6.10438247,45 7,45.8952191 7,47 Z" fill="#D6D6D6"></path>
                            <path d="M27.8521095,19 C28.1532664,18.9985966 28.452063,18.8595553 28.6304913,18.5962546 L34.8443289,9.41860857 C35.1294367,8.99778948 35.0119006,8.43100005 34.5818788,8.1519937 C34.1523292,7.87344925 33.5726731,7.98847005 33.2880374,8.40928926 L27.6883141,16.6792408 L24.576675,13.7880144 C24.2023531,13.4406422 23.6118402,13.455424 23.2563997,13.8217353 C22.9014312,14.1875847 22.9170082,14.7659224 23.2908581,15.1132945 C23.2908581,15.1132945 27.208257,18.7533111 27.2096731,18.7542351 C27.3890455,18.9209921 27.6212856,19.0013682 27.8521095,19 Z" fill="#5DAEDB"></path>
                            <path d="M37.900964,42 L20.0441201,43.1900645 C20.0322357,43.1896249 20.0207916,43.1887456 20.0106679,43.1878663 C19.4569469,43.1377491 18.9564851,42.8761723 18.6012762,42.4510552 C18.2808399,42.0672626 17.7095123,42.0153869 17.325693,42.3354338 C16.9414335,42.6554807 16.8899348,43.2261137 17.2099309,43.6099062 C17.8750124,44.4060668 18.8116725,44.8962485 19.8486891,44.9898886 C19.8927051,44.9938453 19.9367211,44.9969226 19.9741346,44.9982415 C20.0009843,44.9995604 20.0278342,45 20.0546839,45 C20.0648076,45 20.085495,45 20.0951786,44.9995604 C20.1039818,44.9991207 20.1123449,44.9986811 20.1207078,44.9982415 L38,42.9957503 L37.900964,42 Z" fill="#EFD0AF"></path>
                        </g>
                    </g>
                </g>
            </g>
        </g>
    </g>
</svg>