<?xml version="1.0" encoding="UTF-8"?>
<svg width="24px" height="17px" viewBox="0 0 24 17" version="1.1" xmlns="http://www.w3.org/2000/svg" xmlns:xlink="http://www.w3.org/1999/xlink">
    <title>business (1)</title>
    <g id="Lesson-Learned" stroke="none" stroke-width="1" fill="none" fill-rule="evenodd">
        <g id="Desktop-1" transform="translate(-669.000000, -647.000000)" fill="#14639E" fill-rule="nonzero">
            <g id="Für-Fragen" transform="translate(651.000000, 609.000000)">
                <g id="business-(1)" transform="translate(18.000000, 38.000000)">
                    <path d="M7.53571429,9 C8.91642632,9 10.0357143,7.88056093 10.0357143,6.5 C10.0357143,5.11928797 8.91642632,4 7.53571429,4 C6.15500225,4 5.03571429,5.11928797 5.03571429,6.5 C5.03752763,7.87995648 6.15575781,8.99818665 7.53571429,9 Z M7.53571429,4.97195358 C8.38224473,4.97195358 9.0685963,5.658154 9.0685963,6.50483559 C9.0685963,7.35136603 8.38224473,8.0377176 7.53571429,8.0377176 C6.6890327,8.0377176 6.00283227,7.35136603 6.00283227,6.50483559 C6.00313448,5.65830515 6.68918384,4.97225578 7.53571429,4.97195358 Z" id="Shape"></path>
                    <path d="M6.53571429,10.0000919 C5.33685961,9.99331336 4.18617873,10.3616617 3.35057575,11.0195913 C2.5004498,11.6833504 2.03571429,12.5857158 2.03571429,13.5661705 C2.03659982,13.8054546 2.28986653,13.9993222 2.60246492,14 L10.4689637,14 C10.781562,13.9993222 11.0348287,13.8054546 11.0357143,13.5661705 C11.0357143,12.5857158 10.5709788,11.6833504 9.72085282,11.0195913 C8.88524984,10.3616617 7.73474606,9.99331336 6.53571429,10.0000919 Z M3.20888809,13.132341 C3.30594413,12.5651089 3.63997276,12.0371926 4.16102915,11.6269526 C4.78817413,11.1411991 5.64343624,10.8677509 6.53571429,10.8677509 C7.42799233,10.8677509 8.28325444,11.1411991 8.91039942,11.6269526 C9.43039313,12.0375993 9.7644218,12.56538 9.86254048,13.132341 L3.20888809,13.132341 Z" id="Shape"></path>
                    <path d="M20.639881,0 L2.43154762,0 C1.10859839,0.000600282486 0.036313244,1.07525599 0.0357142857,2.40112994 L0.0357142857,14.5988701 C0.036313244,15.924744 1.10859839,16.9993997 2.43154762,17 L20.639881,17 C21.9628302,16.9993997 23.0351153,15.924744 23.0357143,14.5988701 L23.0357143,2.40112994 C23.0351153,1.07525599 21.9628302,0.000600282486 20.639881,0 Z M22.077381,14.5988701 C22.0751348,15.393494 21.4327521,16.037297 20.639881,16.039548 L2.43154762,16.039548 C1.63867652,16.037297 0.996293722,15.393494 0.994047619,14.5988701 L0.994047619,2.40112994 C0.996293722,1.60650599 1.63867652,0.962703046 2.43154762,0.960451977 L20.639881,0.960451977 C21.4327521,0.962703046 22.0751348,1.60650599 22.077381,2.40112994 L22.077381,14.5988701 Z" id="Shape"></path>
                    <path d="M19.5228938,9 L13.5485348,9 C13.2653617,9 13.0357143,9.22375 13.0357143,9.5 C13.0357143,9.77625 13.2653617,10 13.5485348,10 L19.5228938,10 C19.8060669,10 20.0357143,9.77625 20.0357143,9.5 C20.0357143,9.22375 19.8060669,9 19.5228938,9 Z" id="Path"></path>
                    <path d="M19.5228938,11 L13.5485348,11 C13.2653617,11 13.0357143,11.22375 13.0357143,11.5 C13.0357143,11.77625 13.2653617,12 13.5485348,12 L19.5228938,12 C19.8060669,12 20.0357143,11.77625 20.0357143,11.5 C20.0357143,11.22375 19.8060669,11 19.5228938,11 Z" id="Path"></path>
                    <path d="M19.5228938,5 L13.5485348,5 C13.2653617,5 13.0357143,5.22375 13.0357143,5.5 C13.0357143,5.77625 13.2653617,6 13.5485348,6 L19.5228938,6 C19.8060669,6 20.0357143,5.77625 20.0357143,5.5 C20.0357143,5.22375 19.8060669,5 19.5228938,5 Z" id="Path"></path>
                </g>
            </g>
        </g>
    </g>
</svg>