<?xml version="1.0" encoding="UTF-8"?>
<svg width="497px" height="497px" viewBox="0 0 497 497" version="1.1" xmlns="http://www.w3.org/2000/svg" xmlns:xlink="http://www.w3.org/1999/xlink">
    <!-- Generator: Sketch 63.1 (92452) - https://sketch.com -->
    <title>Group</title>
    <desc>Created with Sketch.</desc>
    <g id="ELasticsearch" stroke="none" stroke-width="1" fill="none" fill-rule="evenodd">
        <g id="info-3" transform="translate(-826.000000, 0.000000)" fill-rule="nonzero">
            <g id="Group" transform="translate(826.000000, 0.000000)">
                <path d="M496.158,248.085 C496.158,111.063 385.089,0.003 248.083,0.003 C111.07,0.003 0,111.063 0,248.085 C0,385.086 111.07,496.155 248.083,496.155 C385.089,496.155 496.158,385.086 496.158,248.085 Z" id="Path" fill="#14639E"></path>
                <path d="M315.249,359.555 C313.862,357.523 311.201,356.8 308.979,357.853 C284.397,369.49 256.497,381.793 251.021,382.868 C250.883,382.745 250.664,382.52 250.377,382.131 C249.635,381.126 249.274,379.813 249.274,378.116 C249.274,364.211 259.769,321.911 280.466,252.397 C297.917,193.991 299.935,181.898 299.935,177.883 C299.935,171.685 297.562,166.448 293.07,162.737 C288.803,159.218 282.841,157.435 275.351,157.435 C262.892,157.435 248.452,162.165 231.205,171.896 C214.492,181.329 195.853,197.306 175.809,219.383 C174.24,221.112 174.076,223.697 175.414,225.611 C176.754,227.526 179.239,228.255 181.4,227.375 C188.437,224.503 223.802,210.016 228.957,206.778 C233.178,204.132 236.832,202.789 239.818,202.789 C239.925,202.789 240.017,202.793 240.094,202.799 C240.13,202.997 240.164,203.299 240.164,203.732 C240.164,206.779 239.537,210.386 238.308,214.435 C208.172,312.076 193.523,371.933 193.523,397.429 C193.523,406.427 196.024,413.671 200.955,418.957 C205.98,424.35 212.758,427.084 221.101,427.084 C229.992,427.084 240.813,423.37 254.181,415.73 C267.117,408.338 286.861,392.077 314.544,366.013 C316.337,364.326 316.636,361.587 315.249,359.555 Z" id="Path" fill="#FFFFFF"></path>
                <path d="M314.282,76.672 C309.357,71.631 303.055,69.075 295.553,69.075 C286.213,69.075 278.078,72.766 271.377,80.046 C264.783,87.206 261.439,95.992 261.439,106.159 C261.439,114.192 263.902,120.849 268.759,125.944 C273.681,131.116 279.898,133.738 287.235,133.738 C296.193,133.738 304.284,129.84 311.282,122.152 C318.158,114.599 321.645,105.719 321.645,95.759 C321.646,88.105 319.169,81.684 314.282,76.672 Z" id="Path" fill="#FFFFFF"></path>
            </g>
        </g>
    </g>
</svg>