<svg id="Ebene_1" data-name="Ebene 1" xmlns="http://www.w3.org/2000/svg" xmlns:xlink="http://www.w3.org/1999/xlink" viewBox="0 0 570.3 52.6"><defs><style>.cls-1{fill:#cbbba0;}.cls-2{fill:url(#Unbenannter_Verlauf_95);}</style><linearGradient id="Unbenannter_Verlauf_95" x1="670.73" y1="-155.39" x2="1241.04" y2="-155.39" gradientTransform="translate(-670.7 181.7)" gradientUnits="userSpaceOnUse"><stop offset="0.01" stop-color="#5caedc"/><stop offset="0.26" stop-color="#009ec9"/><stop offset="0.56" stop-color="#009bc7"/><stop offset="0.89" stop-color="#11649f"/><stop offset="1" stop-color="#0f4a80"/><stop offset="1" stop-color="#009ec9"/></linearGradient></defs><path class="cls-1" d="M8.7,0V43.9H34.2l-1.1,7.5H0V0Z" transform="translate(0 0)"/><path class="cls-1" d="M73,40.3a14.4,14.4,0,0,1-5,9.1c-2.6,2.1-6.4,3.2-11.3,3.2s-10.5-1.8-13.6-5.2-4.7-8.3-4.7-14.5a25.4,25.4,0,0,1,1.4-8.6A17.8,17.8,0,0,1,43.5,18a16.5,16.5,0,0,1,5.8-3.9,22,22,0,0,1,14.9,0,14.3,14.3,0,0,1,5.2,3.8,15.4,15.4,0,0,1,3.1,5.8,24.5,24.5,0,0,1,1,7.4v3.6H46.7A14.1,14.1,0,0,0,49.2,43a9.1,9.1,0,0,0,7.5,3.2,9.3,9.3,0,0,0,5.8-1.6,7,7,0,0,0,2.6-4.3ZM65.5,29a11.5,11.5,0,0,0-2.1-7.3c-1.5-1.7-3.8-2.6-7-2.6a8.7,8.7,0,0,0-6.9,2.7A12.3,12.3,0,0,0,46.8,29Z" transform="translate(0 0)"/><path class="cls-1" d="M87.5,40a6.7,6.7,0,0,0,1,3,6.1,6.1,0,0,0,2,1.9,7.9,7.9,0,0,0,2.7,1,18.7,18.7,0,0,0,3.4.3c2.8,0,4.7-.5,5.9-1.3a4,4,0,0,0,1.8-3.6,4.2,4.2,0,0,0-1.1-3.1c-.7-.9-2.3-1.5-4.6-1.9l-7.8-1.5a22.2,22.2,0,0,1-5.7-2,9.1,9.1,0,0,1-3.5-3.2,12,12,0,0,1-1.1-5.4,10.5,10.5,0,0,1,1.1-4.7,11.3,11.3,0,0,1,3.3-3.6,13.9,13.9,0,0,1,4.9-2.3,23.9,23.9,0,0,1,6.2-.8,24.3,24.3,0,0,1,7.2.9,12.3,12.3,0,0,1,4.7,2.4,11.3,11.3,0,0,1,2.8,3.4,19.8,19.8,0,0,1,1.4,4.1l-7.4,1a9.7,9.7,0,0,0-2.6-4.2c-1.2-.9-3.2-1.3-5.9-1.3a14.1,14.1,0,0,0-3.9.4,9,9,0,0,0-2.4,1.1A3.1,3.1,0,0,0,88.7,22a5.3,5.3,0,0,0-.4,1.6,5.6,5.6,0,0,0,.3,2,2.4,2.4,0,0,0,1.1,1.3,5.3,5.3,0,0,0,2,.9l3.3.7,4.7.8a26,26,0,0,1,6.2,1.7,11.8,11.8,0,0,1,4,2.4,8.4,8.4,0,0,1,2.1,3.5,18.8,18.8,0,0,1,.5,4.3,10,10,0,0,1-3.9,8.2c-2.6,2.1-6.6,3.2-11.8,3.2a25.9,25.9,0,0,1-6.3-.7,15.3,15.3,0,0,1-5.3-2A11.2,11.2,0,0,1,81.3,46a13.3,13.3,0,0,1-1.7-6Z" transform="translate(0 0)"/><path class="cls-1" d="M126,40a6.7,6.7,0,0,0,1,3,6.1,6.1,0,0,0,2,1.9,7.7,7.7,0,0,0,2.8,1,16.9,16.9,0,0,0,3.3.3c2.8,0,4.7-.5,5.9-1.3a4,4,0,0,0,1.8-3.6,4.2,4.2,0,0,0-1.1-3.1c-.7-.9-2.2-1.5-4.5-1.9l-7.9-1.5a25.3,25.3,0,0,1-5.7-2,8.1,8.1,0,0,1-3.4-3.2,10.8,10.8,0,0,1-1.2-5.4,9.4,9.4,0,0,1,1.2-4.7,9.9,9.9,0,0,1,3.2-3.6,14.8,14.8,0,0,1,4.9-2.3,26.8,26.8,0,0,1,13.4.1,11.6,11.6,0,0,1,4.7,2.4,10,10,0,0,1,2.8,3.4,19.8,19.8,0,0,1,1.4,4.1l-7.4,1a8.9,8.9,0,0,0-2.6-4.2c-1.2-.9-3.2-1.3-5.9-1.3a14.1,14.1,0,0,0-3.9.4,9,9,0,0,0-2.4,1.1,3.1,3.1,0,0,0-1.2,1.4,5,5,0,0,0-.3,1.6,5.6,5.6,0,0,0,.3,2,1.9,1.9,0,0,0,1,1.3,5.1,5.1,0,0,0,2.1.9l3.2.7,4.7.8a26,26,0,0,1,6.2,1.7,11.8,11.8,0,0,1,4,2.4,8.4,8.4,0,0,1,2.1,3.5,14.4,14.4,0,0,1,.6,4.3,10.1,10.1,0,0,1-4,8.2c-2.6,2.1-6.5,3.2-11.8,3.2a24.5,24.5,0,0,1-6.2-.7,15.9,15.9,0,0,1-5.4-2,11.2,11.2,0,0,1-3.9-3.9,13.3,13.3,0,0,1-1.6-6Z" transform="translate(0 0)"/><path class="cls-1" d="M176,52.6c-5.8,0-10.4-1.8-13.6-5.2s-4.8-8.4-4.8-14.7a23,23,0,0,1,1.3-8.1,16.3,16.3,0,0,1,3.6-6.3,15.9,15.9,0,0,1,5.8-4,19.9,19.9,0,0,1,7.9-1.5,19.5,19.5,0,0,1,7.9,1.5,16.1,16.1,0,0,1,5.8,4.1,16.4,16.4,0,0,1,3.5,6.2,25.2,25.2,0,0,1,1.2,7.9,22.5,22.5,0,0,1-1.4,8.6,16.6,16.6,0,0,1-3.8,6.3,16.9,16.9,0,0,1-5.9,3.9A21.8,21.8,0,0,1,176,52.6Zm.1-6.7c3.5,0,6-1.2,7.6-3.5s2.4-5.7,2.4-9.8-.8-7.3-2.4-9.6-4.1-3.6-7.6-3.6-6,1.2-7.6,3.6-2.4,5.6-2.4,9.6.8,7.3,2.3,9.7S172.6,45.9,176.1,45.9Z" transform="translate(0 0)"/><path class="cls-1" d="M211.1,14v5.4a17.3,17.3,0,0,1,5.6-5,14.4,14.4,0,0,1,6.7-1.6c8.4,0,12.5,4.6,12.5,13.8V51.4h-8.2V27.9c0-3-.5-5.1-1.6-6.3a6,6,0,0,0-4.9-1.9,10.4,10.4,0,0,0-7.1,2.8,12.1,12.1,0,0,0-2,3,9,9,0,0,0-.8,3.6V51.4h-8.2V14Z" transform="translate(0 0)"/><path class="cls-1" d="M250.9,40a8.1,8.1,0,0,0,1,3,7.2,7.2,0,0,0,2,1.9,7.7,7.7,0,0,0,2.8,1,17.9,17.9,0,0,0,3.4.3,11,11,0,0,0,5.9-1.3,4,4,0,0,0,1.8-3.6,4.3,4.3,0,0,0-1.2-3.1c-.7-.9-2.2-1.5-4.5-1.9l-7.9-1.5a25.3,25.3,0,0,1-5.7-2,8.8,8.8,0,0,1-3.4-3.2,10.8,10.8,0,0,1-1.2-5.4,9.4,9.4,0,0,1,1.2-4.7,11,11,0,0,1,3.2-3.6,14.8,14.8,0,0,1,4.9-2.3,24.5,24.5,0,0,1,6.2-.8,25.5,25.5,0,0,1,7.3.9,12.3,12.3,0,0,1,4.7,2.4,9.7,9.7,0,0,1,2.7,3.4,19.8,19.8,0,0,1,1.4,4.1l-7.4,1a8.9,8.9,0,0,0-2.6-4.2c-1.2-.9-3.1-1.3-5.9-1.3a14.1,14.1,0,0,0-3.9.4,9,9,0,0,0-2.4,1.1,3.1,3.1,0,0,0-1.2,1.4,5,5,0,0,0-.3,1.6,5.6,5.6,0,0,0,.3,2,2.2,2.2,0,0,0,1,1.3,5.1,5.1,0,0,0,2.1.9l3.2.7,4.7.8a28.4,28.4,0,0,1,6.3,1.7,11.3,11.3,0,0,1,3.9,2.4,8.4,8.4,0,0,1,2.1,3.5,14.4,14.4,0,0,1,.6,4.3,10,10,0,0,1-3.9,8.2c-2.7,2.1-6.6,3.2-11.9,3.2a25.1,25.1,0,0,1-6.2-.7,15.9,15.9,0,0,1-5.4-2,10.2,10.2,0,0,1-3.8-3.9,12.1,12.1,0,0,1-1.7-6Z" transform="translate(0 0)"/><path class="cls-1" d="M309.7,0V43.9h25.5l-1.1,7.5H301V0Z" transform="translate(0 0)"/><path class="cls-1" d="M374,40.3a14.3,14.3,0,0,1-4.9,9.1c-2.7,2.1-6.5,3.2-11.4,3.2s-10.5-1.8-13.6-5.2-4.6-8.3-4.6-14.5a25.5,25.5,0,0,1,1.3-8.6,16.6,16.6,0,0,1,3.8-6.3,16.1,16.1,0,0,1,5.7-3.9,21.7,21.7,0,0,1,7.4-1.3,21,21,0,0,1,7.5,1.3,14.3,14.3,0,0,1,5.2,3.8,14.1,14.1,0,0,1,3.1,5.8,24.5,24.5,0,0,1,1,7.4v3.6H347.7c.1,3.4.9,6.2,2.6,8.3s4.1,3.2,7.4,3.2a9.3,9.3,0,0,0,5.8-1.6,7,7,0,0,0,2.6-4.3ZM366.5,29a11.5,11.5,0,0,0-2.1-7.3c-1.4-1.7-3.8-2.6-6.9-2.6s-5.4.9-6.9,2.7a12.3,12.3,0,0,0-2.8,7.2Z" transform="translate(0 0)"/><path class="cls-1" d="M405.6,46.5a17.4,17.4,0,0,1-5.1,4.2,15.5,15.5,0,0,1-7.4,1.6,20.1,20.1,0,0,1-5-.6,12.2,12.2,0,0,1-3.9-2.1,8.5,8.5,0,0,1-2.7-3.5,11.2,11.2,0,0,1-1-5,10.9,10.9,0,0,1,1.7-6.3,12.7,12.7,0,0,1,4.5-3.8,24.4,24.4,0,0,1,6.3-1.9c2.3-.3,4.6-.6,6.9-.7l5.5-.2V26.6c0-2.9-.7-4.8-2-5.9a8.5,8.5,0,0,0-5.4-1.6c-2.5,0-4.4.4-5.6,1.3a5.8,5.8,0,0,0-2.5,3.7l-7.4-.8a11.4,11.4,0,0,1,4.9-8c2.7-1.6,6.3-2.5,10.9-2.5a19.8,19.8,0,0,1,7.4,1.2,11,11,0,0,1,4.6,3.1,10.9,10.9,0,0,1,2.4,4.8,23.7,23.7,0,0,1,.7,6.1V51.4h-7.8Zm-5.4-12.6a36.5,36.5,0,0,0-6,.8,11.5,11.5,0,0,0-3.5,1.5,4.6,4.6,0,0,0-1.6,2.1,10.1,10.1,0,0,0-.4,2.5,4.5,4.5,0,0,0,1.6,3.8c1,1,2.5,1.4,4.5,1.4,3.6,0,6.3-.9,8-2.7a10.2,10.2,0,0,0,2.6-7.4V33.7Z" transform="translate(0 0)"/><path class="cls-1" d="M430.8,14v5.6a13.8,13.8,0,0,1,4.7-4.6,10.8,10.8,0,0,1,5.8-1.6h2l1.7.2-1,7.5-1.7-.2h-2a10.2,10.2,0,0,0-4,.7,10,10,0,0,0-2.9,2,7.5,7.5,0,0,0-1.8,2.8,8.1,8.1,0,0,0-.6,3.1V51.4h-8.2V14Z" transform="translate(0 0)"/><path class="cls-1" d="M459.4,14v5.4a16.6,16.6,0,0,1,5.7-5,13.8,13.8,0,0,1,6.7-1.6c8.3,0,12.5,4.6,12.5,13.8V51.4h-8.2V27.9c0-3-.6-5.1-1.7-6.3a6,6,0,0,0-4.9-1.9,10.1,10.1,0,0,0-3.9.8,10.3,10.3,0,0,0-3.2,2,12.1,12.1,0,0,0-2,3,9,9,0,0,0-.8,3.6V51.4h-8.2V14Z" transform="translate(0 0)"/><path class="cls-1" d="M526.9,40.3a14.4,14.4,0,0,1-5,9.1c-2.6,2.1-6.4,3.2-11.4,3.2s-10.4-1.8-13.5-5.2-4.7-8.3-4.7-14.5a25.4,25.4,0,0,1,1.4-8.6,17.8,17.8,0,0,1,3.7-6.3,15.6,15.6,0,0,1,5.8-3.9,21.5,21.5,0,0,1,7.3-1.3,21,21,0,0,1,7.5,1.3,14.7,14.7,0,0,1,5.3,3.8,15.4,15.4,0,0,1,3.1,5.8,24.5,24.5,0,0,1,1,7.4v3.6H500.5a14.1,14.1,0,0,0,2.6,8.3,8.9,8.9,0,0,0,7.4,3.2,9.7,9.7,0,0,0,5.9-1.6,7.5,7.5,0,0,0,2.6-4.3ZM519.4,29c0-3.1-.7-5.5-2.2-7.3s-3.7-2.6-6.9-2.6a8.7,8.7,0,0,0-6.9,2.7,11.7,11.7,0,0,0-2.7,7.2Z" transform="translate(0 0)"/><path class="cls-1" d="M562.2,46.3A15.4,15.4,0,0,1,557,51a14.5,14.5,0,0,1-6.8,1.6,15.4,15.4,0,0,1-7-1.5,13.5,13.5,0,0,1-4.9-4,20.3,20.3,0,0,1-2.9-6.3,33.2,33.2,0,0,1-.9-8,27.1,27.1,0,0,1,1-7.7,17.7,17.7,0,0,1,2.9-6.2,13.8,13.8,0,0,1,4.8-4.2,14,14,0,0,1,6.6-1.7h2.9a17.1,17.1,0,0,1,4.9,1.4,13.9,13.9,0,0,1,4.5,3.7V0h8.2V51.4h-8.1Zm0-14.4a20,20,0,0,0-.8-5.9,10.4,10.4,0,0,0-2.1-3.9,7.9,7.9,0,0,0-3.1-2,11,11,0,0,0-3.7-.6,8.3,8.3,0,0,0-7,3.3c-1.7,2.1-2.5,5.4-2.5,9.9a21.8,21.8,0,0,0,.7,6.1,13,13,0,0,0,1.9,4.1,8.1,8.1,0,0,0,3,2.3,8.6,8.6,0,0,0,3.6.7,9.4,9.4,0,0,0,7.2-2.9c1.8-1.9,2.8-5,2.8-9.1Z" transform="translate(0 0)"/><path class="cls-2" d="M8.7,0V43.9H34.2l-1.1,7.5H0V0Z" transform="translate(0 0)"/><path class="cls-2" d="M73,40.3a14.4,14.4,0,0,1-5,9.1c-2.6,2.1-6.4,3.2-11.3,3.2s-10.5-1.8-13.6-5.2-4.7-8.3-4.7-14.5a25.4,25.4,0,0,1,1.4-8.6A17.8,17.8,0,0,1,43.5,18a16.5,16.5,0,0,1,5.8-3.9,22,22,0,0,1,14.9,0,14.3,14.3,0,0,1,5.2,3.8,15.4,15.4,0,0,1,3.1,5.8,24.5,24.5,0,0,1,1,7.4v3.6H46.7A14.1,14.1,0,0,0,49.2,43a9.1,9.1,0,0,0,7.5,3.2,9.3,9.3,0,0,0,5.8-1.6,7,7,0,0,0,2.6-4.3ZM65.5,29a11.5,11.5,0,0,0-2.1-7.3c-1.5-1.7-3.8-2.6-7-2.6a8.7,8.7,0,0,0-6.9,2.7A12.3,12.3,0,0,0,46.8,29Z" transform="translate(0 0)"/><path class="cls-2" d="M87.5,40a6.7,6.7,0,0,0,1,3,6.1,6.1,0,0,0,2,1.9,7.9,7.9,0,0,0,2.7,1,18.7,18.7,0,0,0,3.4.3c2.8,0,4.7-.5,5.9-1.3a4,4,0,0,0,1.8-3.6,4.2,4.2,0,0,0-1.1-3.1c-.7-.9-2.3-1.5-4.6-1.9l-7.8-1.5a22.2,22.2,0,0,1-5.7-2,9.1,9.1,0,0,1-3.5-3.2,12,12,0,0,1-1.1-5.4,10.5,10.5,0,0,1,1.1-4.7,11.3,11.3,0,0,1,3.3-3.6,13.9,13.9,0,0,1,4.9-2.3,23.9,23.9,0,0,1,6.2-.8,24.3,24.3,0,0,1,7.2.9,12.3,12.3,0,0,1,4.7,2.4,11.3,11.3,0,0,1,2.8,3.4,19.8,19.8,0,0,1,1.4,4.1l-7.4,1a9.7,9.7,0,0,0-2.6-4.2c-1.2-.9-3.2-1.3-5.9-1.3a14.1,14.1,0,0,0-3.9.4,9,9,0,0,0-2.4,1.1A3.1,3.1,0,0,0,88.7,22a5.3,5.3,0,0,0-.4,1.6,5.6,5.6,0,0,0,.3,2,2.4,2.4,0,0,0,1.1,1.3,5.3,5.3,0,0,0,2,.9l3.3.7,4.7.8a26,26,0,0,1,6.2,1.7,11.8,11.8,0,0,1,4,2.4,8.4,8.4,0,0,1,2.1,3.5,18.8,18.8,0,0,1,.5,4.3,10,10,0,0,1-3.9,8.2c-2.6,2.1-6.6,3.2-11.8,3.2a25.9,25.9,0,0,1-6.3-.7,15.3,15.3,0,0,1-5.3-2A11.2,11.2,0,0,1,81.3,46a13.3,13.3,0,0,1-1.7-6Z" transform="translate(0 0)"/><path class="cls-2" d="M126,40a6.7,6.7,0,0,0,1,3,6.1,6.1,0,0,0,2,1.9,7.7,7.7,0,0,0,2.8,1,16.9,16.9,0,0,0,3.3.3c2.8,0,4.7-.5,5.9-1.3a4,4,0,0,0,1.8-3.6,4.2,4.2,0,0,0-1.1-3.1c-.7-.9-2.2-1.5-4.5-1.9l-7.9-1.5a25.3,25.3,0,0,1-5.7-2,8.1,8.1,0,0,1-3.4-3.2,10.8,10.8,0,0,1-1.2-5.4,9.4,9.4,0,0,1,1.2-4.7,9.9,9.9,0,0,1,3.2-3.6,14.8,14.8,0,0,1,4.9-2.3,26.8,26.8,0,0,1,13.4.1,11.6,11.6,0,0,1,4.7,2.4,10,10,0,0,1,2.8,3.4,19.8,19.8,0,0,1,1.4,4.1l-7.4,1a8.9,8.9,0,0,0-2.6-4.2c-1.2-.9-3.2-1.3-5.9-1.3a14.1,14.1,0,0,0-3.9.4,9,9,0,0,0-2.4,1.1,3.1,3.1,0,0,0-1.2,1.4,5,5,0,0,0-.3,1.6,5.6,5.6,0,0,0,.3,2,1.9,1.9,0,0,0,1,1.3,5.1,5.1,0,0,0,2.1.9l3.2.7,4.7.8a26,26,0,0,1,6.2,1.7,11.8,11.8,0,0,1,4,2.4,8.4,8.4,0,0,1,2.1,3.5,14.4,14.4,0,0,1,.6,4.3,10.1,10.1,0,0,1-4,8.2c-2.6,2.1-6.5,3.2-11.8,3.2a24.5,24.5,0,0,1-6.2-.7,15.9,15.9,0,0,1-5.4-2,11.2,11.2,0,0,1-3.9-3.9,13.3,13.3,0,0,1-1.6-6Z" transform="translate(0 0)"/><path class="cls-2" d="M176,52.6c-5.8,0-10.4-1.8-13.6-5.2s-4.8-8.4-4.8-14.7a23,23,0,0,1,1.3-8.1,16.3,16.3,0,0,1,3.6-6.3,15.9,15.9,0,0,1,5.8-4,19.9,19.9,0,0,1,7.9-1.5,19.5,19.5,0,0,1,7.9,1.5,16.1,16.1,0,0,1,5.8,4.1,16.4,16.4,0,0,1,3.5,6.2,25.2,25.2,0,0,1,1.2,7.9,22.5,22.5,0,0,1-1.4,8.6,16.6,16.6,0,0,1-3.8,6.3,16.9,16.9,0,0,1-5.9,3.9A21.8,21.8,0,0,1,176,52.6Zm.1-6.7c3.5,0,6-1.2,7.6-3.5s2.4-5.7,2.4-9.8-.8-7.3-2.4-9.6-4.1-3.6-7.6-3.6-6,1.2-7.6,3.6-2.4,5.6-2.4,9.6.8,7.3,2.3,9.7S172.6,45.9,176.1,45.9Z" transform="translate(0 0)"/><path class="cls-2" d="M211.1,14v5.4a17.3,17.3,0,0,1,5.6-5,14.4,14.4,0,0,1,6.7-1.6c8.4,0,12.5,4.6,12.5,13.8V51.4h-8.2V27.9c0-3-.5-5.1-1.6-6.3a6,6,0,0,0-4.9-1.9,10.4,10.4,0,0,0-7.1,2.8,12.1,12.1,0,0,0-2,3,9,9,0,0,0-.8,3.6V51.4h-8.2V14Z" transform="translate(0 0)"/><path class="cls-2" d="M250.9,40a8.1,8.1,0,0,0,1,3,7.2,7.2,0,0,0,2,1.9,7.7,7.7,0,0,0,2.8,1,17.9,17.9,0,0,0,3.4.3,11,11,0,0,0,5.9-1.3,4,4,0,0,0,1.8-3.6,4.3,4.3,0,0,0-1.2-3.1c-.7-.9-2.2-1.5-4.5-1.9l-7.9-1.5a25.3,25.3,0,0,1-5.7-2,8.8,8.8,0,0,1-3.4-3.2,10.8,10.8,0,0,1-1.2-5.4,9.4,9.4,0,0,1,1.2-4.7,11,11,0,0,1,3.2-3.6,14.8,14.8,0,0,1,4.9-2.3,24.5,24.5,0,0,1,6.2-.8,25.5,25.5,0,0,1,7.3.9,12.3,12.3,0,0,1,4.7,2.4,9.7,9.7,0,0,1,2.7,3.4,19.8,19.8,0,0,1,1.4,4.1l-7.4,1a8.9,8.9,0,0,0-2.6-4.2c-1.2-.9-3.1-1.3-5.9-1.3a14.1,14.1,0,0,0-3.9.4,9,9,0,0,0-2.4,1.1,3.1,3.1,0,0,0-1.2,1.4,5,5,0,0,0-.3,1.6,5.6,5.6,0,0,0,.3,2,2.2,2.2,0,0,0,1,1.3,5.1,5.1,0,0,0,2.1.9l3.2.7,4.7.8a28.4,28.4,0,0,1,6.3,1.7,11.3,11.3,0,0,1,3.9,2.4,8.4,8.4,0,0,1,2.1,3.5,14.4,14.4,0,0,1,.6,4.3,10,10,0,0,1-3.9,8.2c-2.7,2.1-6.6,3.2-11.9,3.2a25.1,25.1,0,0,1-6.2-.7,15.9,15.9,0,0,1-5.4-2,10.2,10.2,0,0,1-3.8-3.9,12.1,12.1,0,0,1-1.7-6Z" transform="translate(0 0)"/><path class="cls-2" d="M309.7,0V43.9h25.5l-1.1,7.5H301V0Z" transform="translate(0 0)"/><path class="cls-2" d="M374,40.3a14.3,14.3,0,0,1-4.9,9.1c-2.7,2.1-6.5,3.2-11.4,3.2s-10.5-1.8-13.6-5.2-4.6-8.3-4.6-14.5a25.5,25.5,0,0,1,1.3-8.6,16.6,16.6,0,0,1,3.8-6.3,16.1,16.1,0,0,1,5.7-3.9,21.7,21.7,0,0,1,7.4-1.3,21,21,0,0,1,7.5,1.3,14.3,14.3,0,0,1,5.2,3.8,14.1,14.1,0,0,1,3.1,5.8,24.5,24.5,0,0,1,1,7.4v3.6H347.7c.1,3.4.9,6.2,2.6,8.3s4.1,3.2,7.4,3.2a9.3,9.3,0,0,0,5.8-1.6,7,7,0,0,0,2.6-4.3ZM366.5,29a11.5,11.5,0,0,0-2.1-7.3c-1.4-1.7-3.8-2.6-6.9-2.6s-5.4.9-6.9,2.7a12.3,12.3,0,0,0-2.8,7.2Z" transform="translate(0 0)"/><path class="cls-2" d="M405.6,46.5a17.4,17.4,0,0,1-5.1,4.2,15.5,15.5,0,0,1-7.4,1.6,20.1,20.1,0,0,1-5-.6,12.2,12.2,0,0,1-3.9-2.1,8.5,8.5,0,0,1-2.7-3.5,11.2,11.2,0,0,1-1-5,10.9,10.9,0,0,1,1.7-6.3,12.7,12.7,0,0,1,4.5-3.8,24.4,24.4,0,0,1,6.3-1.9c2.3-.3,4.6-.6,6.9-.7l5.5-.2V26.6c0-2.9-.7-4.8-2-5.9a8.5,8.5,0,0,0-5.4-1.6c-2.5,0-4.4.4-5.6,1.3a5.8,5.8,0,0,0-2.5,3.7l-7.4-.8a11.4,11.4,0,0,1,4.9-8c2.7-1.6,6.3-2.5,10.9-2.5a19.8,19.8,0,0,1,7.4,1.2,11,11,0,0,1,4.6,3.1,10.9,10.9,0,0,1,2.4,4.8,23.7,23.7,0,0,1,.7,6.1V51.4h-7.8Zm-5.4-12.6a36.5,36.5,0,0,0-6,.8,11.5,11.5,0,0,0-3.5,1.5,4.6,4.6,0,0,0-1.6,2.1,10.1,10.1,0,0,0-.4,2.5,4.5,4.5,0,0,0,1.6,3.8c1,1,2.5,1.4,4.5,1.4,3.6,0,6.3-.9,8-2.7a10.2,10.2,0,0,0,2.6-7.4V33.7Z" transform="translate(0 0)"/><path class="cls-2" d="M430.8,14v5.6a13.8,13.8,0,0,1,4.7-4.6,10.8,10.8,0,0,1,5.8-1.6h2l1.7.2-1,7.5-1.7-.2h-2a10.2,10.2,0,0,0-4,.7,10,10,0,0,0-2.9,2,7.5,7.5,0,0,0-1.8,2.8,8.1,8.1,0,0,0-.6,3.1V51.4h-8.2V14Z" transform="translate(0 0)"/><path class="cls-2" d="M459.4,14v5.4a16.6,16.6,0,0,1,5.7-5,13.8,13.8,0,0,1,6.7-1.6c8.3,0,12.5,4.6,12.5,13.8V51.4h-8.2V27.9c0-3-.6-5.1-1.7-6.3a6,6,0,0,0-4.9-1.9,10.1,10.1,0,0,0-3.9.8,10.3,10.3,0,0,0-3.2,2,12.1,12.1,0,0,0-2,3,9,9,0,0,0-.8,3.6V51.4h-8.2V14Z" transform="translate(0 0)"/><path class="cls-2" d="M526.9,40.3a14.4,14.4,0,0,1-5,9.1c-2.6,2.1-6.4,3.2-11.4,3.2s-10.4-1.8-13.5-5.2-4.7-8.3-4.7-14.5a25.4,25.4,0,0,1,1.4-8.6,17.8,17.8,0,0,1,3.7-6.3,15.6,15.6,0,0,1,5.8-3.9,21.5,21.5,0,0,1,7.3-1.3,21,21,0,0,1,7.5,1.3,14.7,14.7,0,0,1,5.3,3.8,15.4,15.4,0,0,1,3.1,5.8,24.5,24.5,0,0,1,1,7.4v3.6H500.5a14.1,14.1,0,0,0,2.6,8.3,8.9,8.9,0,0,0,7.4,3.2,9.7,9.7,0,0,0,5.9-1.6,7.5,7.5,0,0,0,2.6-4.3ZM519.4,29c0-3.1-.7-5.5-2.2-7.3s-3.7-2.6-6.9-2.6a8.7,8.7,0,0,0-6.9,2.7,11.7,11.7,0,0,0-2.7,7.2Z" transform="translate(0 0)"/><path class="cls-2" d="M562.2,46.3A15.4,15.4,0,0,1,557,51a14.5,14.5,0,0,1-6.8,1.6,15.4,15.4,0,0,1-7-1.5,13.5,13.5,0,0,1-4.9-4,20.3,20.3,0,0,1-2.9-6.3,33.2,33.2,0,0,1-.9-8,27.1,27.1,0,0,1,1-7.7,17.7,17.7,0,0,1,2.9-6.2,13.8,13.8,0,0,1,4.8-4.2,14,14,0,0,1,6.6-1.7h2.9a17.1,17.1,0,0,1,4.9,1.4,13.9,13.9,0,0,1,4.5,3.7V0h8.2V51.4h-8.1Zm0-14.4a20,20,0,0,0-.8-5.9,10.4,10.4,0,0,0-2.1-3.9,7.9,7.9,0,0,0-3.1-2,11,11,0,0,0-3.7-.6,8.3,8.3,0,0,0-7,3.3c-1.7,2.1-2.5,5.4-2.5,9.9a21.8,21.8,0,0,0,.7,6.1,13,13,0,0,0,1.9,4.1,8.1,8.1,0,0,0,3,2.3,8.6,8.6,0,0,0,3.6.7,9.4,9.4,0,0,0,7.2-2.9c1.8-1.9,2.8-5,2.8-9.1Z" transform="translate(0 0)"/></svg>