<?xml version="1.0" encoding="UTF-8"?>
<svg width="512px" height="512px" viewBox="0 0 512 512" version="1.1" xmlns="http://www.w3.org/2000/svg" xmlns:xlink="http://www.w3.org/1999/xlink">
    <!-- Generator: Sketch 63.1 (92452) - https://sketch.com -->
    <title>plus</title>
    <desc>Created with Sketch.</desc>
    <g id="ELasticsearch" stroke="none" stroke-width="1" fill="none" fill-rule="evenodd">
        <g id="plus" fill="#14639E" fill-rule="nonzero">
            <path d="M256,0 C114.835938,0 0,114.835938 0,256 C0,397.164062 114.835938,512 256,512 C397.164062,512 512,397.164062 512,256 C512,114.835938 397.164062,0 256,0 Z M277.332031,277.332031 L277.332031,368 C277.332031,379.777344 267.777344,389.332031 256,389.332031 C244.222656,389.332031 234.667969,379.777344 234.667969,368 L234.667969,277.332031 L144,277.332031 C132.222656,277.332031 122.667969,267.777344 122.667969,256 C122.667969,244.222656 132.222656,234.667969 144,234.667969 L234.667969,234.667969 L234.667969,144 C234.667969,132.222656 244.222656,122.667969 256,122.667969 C267.777344,122.667969 277.332031,132.222656 277.332031,144 L277.332031,234.667969 L368,234.667969 C379.777344,234.667969 389.332031,244.222656 389.332031,256 C389.332031,267.777344 379.777344,277.332031 368,277.332031 L277.332031,277.332031 Z" id="Shape"></path>
        </g>
    </g>
</svg>