<?xml version="1.0" encoding="UTF-8"?>
<svg width="28px" height="28px" viewBox="0 0 28 28" version="1.1" xmlns="http://www.w3.org/2000/svg" xmlns:xlink="http://www.w3.org/1999/xlink">
    <title>zoom</title>
    <g id="Lesson-Learned" stroke="none" stroke-width="1" fill="none" fill-rule="evenodd">
        <g id="Desktop-1" transform="translate(-983.000000, -423.000000)" fill="#15639E" fill-rule="nonzero">
            <g id="zoom" transform="translate(983.000000, 423.000000)">
                <path d="M20.5302946,18.0578295 C21.9069612,16.1778682 22.7304109,13.8686822 22.7304109,11.3653411 C22.7304109,5.09876744 17.6317519,0.000108527132 11.3651783,0.000108527132 C5.09860465,0.000108527132 0,5.09876744 0,11.3653411 C0,17.6319147 5.09865891,22.7305736 11.3652326,22.7305736 C13.8685736,22.7305736 16.1779767,21.9070155 18.057938,20.5303488 L25.5035504,27.9759612 L27.9760155,25.5034961 C27.9760155,25.5034419 20.5302946,18.0578295 20.5302946,18.0578295 L20.5302946,18.0578295 Z M11.3652326,19.2335581 C7.02642636,19.2335581 3.4970155,15.7041473 3.4970155,11.3653411 C3.4970155,7.02653488 7.02642636,3.49712403 11.3652326,3.49712403 C15.7040388,3.49712403 19.2334496,7.02653488 19.2334496,11.3653411 C19.2334496,15.7041473 15.7039845,19.2335581 11.3652326,19.2335581 Z" id="Shape"></path>
            </g>
        </g>
    </g>
</svg>